<svg width="26" height="27" viewBox="0 0 26 27" fill="none" xmlns="http://www.w3.org/2000/svg">
<path d="M10.895 0.773818C11.4826 0.274281 12.2287 0 13 0C13.7713 0 14.5174 0.274281 15.105 0.773818L24.855 9.06082C25.2139 9.3659 25.5021 9.74534 25.6999 10.1729C25.8976 10.6004 26 11.0658 26 11.5368V24.4968C26 25.1599 25.7366 25.7957 25.2678 26.2646C24.7989 26.7334 24.163 26.9968 23.5 26.9968H19.5C18.837 26.9968 18.2011 26.7334 17.7322 26.2646C17.2634 25.7957 17 25.1599 17 24.4968V17.9968C17 17.4679 16.7905 16.9606 16.4174 16.5858C16.0443 16.211 15.5379 15.9992 15.009 15.9968H10.99C10.4613 15.9995 9.95516 16.2113 9.58225 16.5861C9.20933 16.9609 8.99999 17.4681 9 17.9968V24.4968C9 24.8251 8.93534 25.1502 8.8097 25.4535C8.68406 25.7568 8.49991 26.0324 8.26777 26.2646C8.03562 26.4967 7.76002 26.6809 7.45671 26.8065C7.15339 26.9322 6.8283 26.9968 6.5 26.9968H2.5C1.83696 26.9968 1.20107 26.7334 0.732233 26.2646C0.263392 25.7957 0 25.1599 0 24.4968V11.5368C2.6311e-05 11.0658 0.102438 10.6004 0.300144 10.1729C0.497849 9.74534 0.786123 9.3659 1.145 9.06082L10.895 0.773818Z" fill="#604937"/>
</svg>
